<svg width="87" height="87" viewBox="0 0 87 87" fill="none" xmlns="http://www.w3.org/2000/svg">
<path d="M43.3833 86.6333C67.0856 86.6333 86.3 67.4189 86.3 43.7167C86.3 20.0144 67.0856 0.799988 43.3833 0.799988C19.6811 0.799988 0.466675 20.0144 0.466675 43.7167C0.466675 67.4189 19.6811 86.6333 43.3833 86.6333Z" fill="#039BE5"/>
<path d="M20.1041 42.7868L61.4829 26.8326C63.4034 26.1387 65.0807 27.3011 64.4585 30.2051L64.462 30.2015L57.4165 63.394C56.8944 65.7473 55.496 66.3195 53.5397 65.2108L42.8106 57.3034L37.6355 62.2889C37.0633 62.8611 36.5805 63.3439 35.4718 63.3439L36.2336 52.4252L56.1183 34.461C56.9838 33.6992 55.9252 33.2701 54.7843 34.0283L30.211 49.4997L19.6177 46.1951C17.3181 45.4655 17.268 43.8955 20.1041 42.7868Z" fill="white"/>
</svg>
