<svg width="87" height="87" viewBox="0 0 87 87" fill="none" xmlns="http://www.w3.org/2000/svg">
<path d="M43.5607 0.799988H43.5393C19.8761 0.799988 0.633331 20.0481 0.633331 43.7167C0.633331 53.1047 3.65896 61.806 8.80359 68.8712L3.4551 84.8147L19.9512 79.5413C26.7374 84.0369 34.8326 86.6333 43.5607 86.6333C67.2239 86.6333 86.4667 67.3798 86.4667 43.7167C86.4667 20.0535 67.2239 0.799988 43.5607 0.799988Z" fill="#1BD741"/>
<path d="M68.5335 61.4037C67.4981 64.3274 63.3888 66.7522 60.1111 67.4603C57.8687 67.9378 54.9396 68.3186 45.0795 64.2308C32.4674 59.0057 24.3454 46.1897 23.7124 45.3582C23.1062 44.5267 18.616 38.572 18.616 32.4135C18.616 26.255 21.7436 23.2562 23.0043 21.9687C24.0396 20.9118 25.7509 20.429 27.3925 20.429C27.9236 20.429 28.401 20.4558 28.8302 20.4773C30.0909 20.5309 30.7239 20.606 31.5554 22.5963C32.5908 25.0908 35.1121 31.2494 35.4125 31.8824C35.7183 32.5154 36.0241 33.3738 35.5949 34.2053C35.1926 35.0636 34.8385 35.4445 34.2055 36.1741C33.5725 36.9036 32.9717 37.4616 32.3386 38.2448C31.7593 38.9261 31.1048 39.6557 31.8344 40.9164C32.5639 42.1502 35.0853 46.2648 38.7976 49.5694C43.5882 53.8343 47.4721 55.1969 48.8615 55.7763C49.8969 56.2054 51.1308 56.1035 51.8872 55.2988C52.8474 54.2634 54.033 52.5468 55.24 50.8569C56.0984 49.6445 57.182 49.4943 58.3193 49.9235C59.4781 50.3258 65.6098 53.3568 66.8705 53.9845C68.1311 54.6175 68.9626 54.9179 69.2684 55.449C69.5688 55.9801 69.5688 58.4746 68.5335 61.4037Z" fill="#FAFAFA"/>
</svg>
